<svg width="23" height="23" viewBox="0 0 23 23" fill="none" xmlns="http://www.w3.org/2000/svg">
<path d="M5.03125 3.59375C4.24512 3.59375 3.59375 4.24512 3.59375 5.03125V17.9688C3.59375 18.7549 4.24512 19.4062 5.03125 19.4062H17.9688C18.7549 19.4062 19.4062 18.7549 19.4062 17.9688V5.03125C19.4062 4.24512 18.7549 3.59375 17.9688 3.59375H5.03125ZM5.03125 5.03125H17.9688V17.9688H14.2402V13.1172H16.1045L16.374 10.9609H14.2402V9.56836C14.2402 8.93945 14.3947 8.5127 15.2959 8.5127H16.4639V6.55859C16.2645 6.53333 15.5739 6.49121 14.7793 6.49121C13.1228 6.49121 11.9941 7.48792 11.9941 9.34375V10.9609H10.1074V13.1172H11.9941V17.9688H5.03125V5.03125Z" fill="white"/>
</svg>
