<svg width="22" height="22" viewBox="0 0 22 22" fill="none" xmlns="http://www.w3.org/2000/svg">
<path d="M7.88477 3.4375C5.4436 3.4375 3.4375 5.44092 3.4375 7.88477V14.1152C3.4375 16.5564 5.44092 18.5625 7.88477 18.5625H14.1152C16.5564 18.5625 18.5625 16.5591 18.5625 14.1152V7.88477C18.5625 5.4436 16.5591 3.4375 14.1152 3.4375H7.88477ZM7.88477 4.8125H14.1152C15.8152 4.8125 17.1875 6.18481 17.1875 7.88477V14.1152C17.1875 15.8152 15.8152 17.1875 14.1152 17.1875H7.88477C6.18481 17.1875 4.8125 15.8152 4.8125 14.1152V7.88477C4.8125 6.18481 6.18481 4.8125 7.88477 4.8125ZM15.0605 6.31641C14.7141 6.31641 14.4375 6.59302 14.4375 6.93945C14.4375 7.28589 14.7141 7.5625 15.0605 7.5625C15.407 7.5625 15.6836 7.28589 15.6836 6.93945C15.6836 6.59302 15.407 6.31641 15.0605 6.31641ZM11 6.875C8.73071 6.875 6.875 8.73071 6.875 11C6.875 13.2693 8.73071 15.125 11 15.125C13.2693 15.125 15.125 13.2693 15.125 11C15.125 8.73071 13.2693 6.875 11 6.875ZM11 8.25C12.5281 8.25 13.75 9.47192 13.75 11C13.75 12.5281 12.5281 13.75 11 13.75C9.47192 13.75 8.25 12.5281 8.25 11C8.25 9.47192 9.47192 8.25 11 8.25Z" fill="white"/>
</svg>
